PathFileType	4	(X/Y/Z)	C:\Users\WrightLab\Desktop\Jo\P5V116.trc
DataRate	CameraRate	NumFrames	NumMarkers	Units	OrigDataRate	OrigDataStartFrame	OrigNumFrames
100.00	100.00	       12	19	mm	100.00	370	       492
Frame#	Time	Headset_Front			Headset_Back			Headset_Left			Headset_Right			Left_Shoulder			Right_Shoulder			Sternum			C7			Left Elbow			Right Elbow			Left Wrist			Right Wrist			Left ASIS			Right ASIS			S2			Left Knee			Right Knee			Left Ankle			Right Ankle			
		X1	Y1	Z1	X2	Y2	Z2	X3	Y3	Z3	X4	Y4	Z4	X5	Y5	Z5	X6	Y6	Z6	X7	Y7	Z7	X8	Y8	Z8	X9	Y9	Z9	X10	Y10	Z10	X11	Y11	Z11	X12	Y12	Z12	X13	Y13	Z13	X14	Y14	Z14	X15	Y15	Z15	X16	Y16	Z16	X17	Y17	Z17	X18	Y18	Z18	X19	Y19	Z19	

370	3.690	-18.31260	1614.37512	1691.86877	407.08606	1768.69714	2112.25391							354.12607	1540.53845	1696.86450	76.59158	1629.16064	1382.06396	123.77455	1375.41846	1631.44543				454.57950	1274.55847	1727.91748	45.28738	1238.87573	1313.52026	263.71509	1204.03210	1816.98657	-44.83510	1094.40991	1483.08899	227.28232	976.08313	1718.96667	25.99044	999.89008	1523.32861	363.58640	1016.83691	1445.19556	331.08286	543.76953	1676.91077	-26.56820	610.28027	1662.12524	437.60907	142.27383	1531.85754	86.88405	178.81622	1597.42786	
371	3.700	-24.03681	1614.40381	1696.09058	404.04916	1768.30652	2117.18066							348.25461	1540.01331	1705.41968	70.28548	1629.11292	1389.35828	119.08595	1375.08569	1635.88196				447.92621	1274.41516	1738.09570	44.38245	1238.33313	1318.32666	256.34064	1203.58789	1823.58447	-48.04905	1093.68445	1487.22681	221.50241	975.27747	1725.77844	22.96608	999.80939	1525.18042	361.38028	1016.14648	1451.37195	325.87369	543.33081	1679.51416	-29.93532	607.66418	1661.69226	436.91458	143.05792	1531.97498	78.66189	171.41467	1618.60059	
372	3.710	-29.78956	1614.44080	1700.29016	401.48694	1768.13660	2121.25366							342.23074	1539.21460	1713.25122				113.92769	1373.54333	1641.53406				441.43777	1273.44141	1747.93982	42.47556	1237.63208	1321.59668	248.39230	1203.66870	1831.56763	-51.36407	1093.16101	1490.31738	215.58688	975.22009	1732.96277	19.34046	999.52094	1529.51855	358.90619	1015.92792	1460.23401	320.97946	542.09613	1682.56213	-33.14277	604.34589	1661.68091	436.26962	143.71249	1531.93604	69.86169	166.34850	1637.35315	
373	3.720	-35.73872	1613.59204	1702.27808	398.16910	1768.47815	2126.33301							336.14536	1538.63757	1721.17090				109.06737	1373.40833	1646.93567				434.79810	1273.06750	1756.65088	42.06460	1236.96606	1327.79199	240.88773	1203.42505	1838.13647	-54.88336	1092.30420	1493.83569	209.37700	974.82086	1740.46558	15.75127	999.09509	1533.88330	355.05090	1014.65753	1468.99512	316.88492	540.46277	1685.00049	-36.05847	599.48108	1658.28381	435.96802	144.88930	1532.49011	61.50709	161.03468	1656.02039	
374	3.730	-42.09715	1613.83203	1705.51868	136.48146	1724.47522	1730.11829							330.28809	1537.80310	1728.57117				103.15002	1372.04028	1651.69727				427.89594	1272.27051	1765.87183	40.30345	1236.03601	1331.62720	232.26779	1203.47327	1845.08728	-58.16485	1091.47852	1497.50781	203.13625	974.18951	1747.80652	11.63630	998.81030	1537.38049	351.88736	1014.56140	1476.17749	312.86700	539.49829	1687.47559	-37.67611	595.51202	1658.98181	435.65515	145.35234	1533.18457	53.12437	156.25455	1674.49854	
375	3.740	-48.12122	1613.61035	1708.64587	130.75352	1723.60339	1736.34839							323.84186	1537.18774	1736.26538				98.24810	1372.24585	1657.32703				420.29959	1271.48462	1775.11816	38.93218	1235.68530	1336.74927	224.50468	1203.36597	1851.85193	-61.72217	1090.68018	1501.10315	196.94626	974.11438	1754.64636	7.63701	997.99670	1541.73108	348.52020	1013.48157	1484.94629	308.51166	538.76526	1690.68359	-38.69939	590.62939	1657.73901	434.67078	146.40407	1533.73755	45.31851	152.76579	1689.06677	
376	3.750	-53.77365	1613.22607	1711.97070	124.09730	1722.95471	1740.54175							316.88440	1536.93713	1744.41675				92.47054	1370.98035	1660.74963				413.63669	1270.59766	1783.49768	37.06827	1233.84814	1340.74072	216.80913	1203.19946	1858.32434	-65.36216	1089.72168	1504.10815	190.53513	973.24286	1761.09412	3.58318	997.40741	1545.80530	344.74469	1012.95111	1493.56787	304.22241	538.73285	1695.60547	-39.22688	585.75433	1657.27844	434.50488	147.57516	1534.33630	38.63320	150.56627	1702.16370	
377	3.760	-59.77208	1612.90930	1714.77710	118.12976	1721.88245	1746.22180							310.25122	1536.02478	1751.62463				86.61862	1371.59424	1667.72229				406.37427	1269.90747	1791.81323	35.69783	1233.05566	1346.04077	208.29156	1202.42712	1864.45618	-69.06011	1088.88513	1506.97449	183.93817	972.40814	1767.69836	-0.84620	996.54010	1550.12573	340.88016	1011.36029	1500.97253	300.14163	538.46173	1700.66321	-38.56831	581.02557	1656.67981	433.81396	148.53935	1534.42285	33.05377	146.24129	1716.37720	
378	3.770	-66.13448	1612.38391	1717.90393	111.74939	1721.50061	1751.17603							304.06705	1534.65100	1758.25049				80.28668	1370.14636	1672.14319				399.00900	1268.89429	1799.99365	33.39534	1231.25073	1349.84338	200.14484	1202.39319	1870.98401	-72.61877	1087.58655	1511.48401	177.51056	971.73334	1773.43567	-5.35942	995.66595	1554.16162	336.93826	1009.76880	1508.43506	296.48187	538.18726	1704.76526	-37.22926	575.93976	1655.66467	433.59500	150.31381	1536.67029	27.65328	144.98279	1726.06641	
379	3.780	-72.29154	1611.70862	1719.83398	105.50912	1720.54663	1753.77869							297.53513	1533.41980	1764.47729				75.22883	1369.53735	1676.02563				391.65237	1267.76880	1808.32507	31.08307	1229.62122	1353.99805	191.88681	1201.96643	1877.56079	-76.45908	1086.50659	1514.98511	170.13319	971.41296	1781.41248	-9.88667	994.52783	1559.41821	333.30106	1009.06268	1517.27771	292.77206	537.15918	1708.76733	-36.31187	571.74115	1658.14099	432.89767	152.06380	1537.57568	23.84973	143.40150	1734.06470	
380	3.790	-78.38110	1610.85864	1721.35461	99.16181	1720.02759	1758.63696							290.26065	1532.83313	1771.65271				69.10909	1368.19348	1681.18420				384.16556	1266.73315	1815.92285	29.12169	1228.28979	1359.05554	183.73174	1201.23303	1883.79663	-80.15465	1085.11755	1518.32471	163.16560	970.40955	1788.19141	-14.77405	993.30585	1564.16235	328.57236	1007.50256	1524.95239	288.70480	536.09961	1713.51563	-34.63205	567.18829	1662.20142	432.47653	153.39798	1538.24890	21.22825	140.43796	1744.99976	
381	3.800	-84.69819	1610.42554	1723.63818	93.09290	1718.83337	1763.36670							283.62015	1531.77295	1777.10022				62.74339	1367.23401	1685.10693				376.39145	1265.85986	1824.05933	26.44136	1226.08679	1363.03101	175.18439	1200.43787	1889.42798	-83.96761	1083.79480	1521.68396	156.17484	969.83173	1794.14673	-19.44271	992.19965	1568.89099	324.12732	1005.77374	1532.56287	283.38626	535.84332	1721.10535	-33.81335	564.65405	1666.33838	431.98444	155.86163	1540.46875	19.13236	139.04349	1747.99194	
